<svg width="30" height="30" viewBox="0 0 30 30" fill="none" xmlns="http://www.w3.org/2000/svg">
<path fill-rule="evenodd" clip-rule="evenodd" d="M0.549175 0.549175C1.28141 -0.183058 2.46859 -0.183058 3.20083 0.549175L15 12.3483L26.7992 0.549174C27.5314 -0.183059 28.7186 -0.183058 29.4508 0.549176C30.1831 1.28141 30.1831 2.46859 29.4508 3.20083L17.6516 15L29.4508 26.7992C30.1831 27.5314 30.1831 28.7186 29.4508 29.4508C28.7186 30.1831 27.5314 30.1831 26.7992 29.4508L15 17.6516L3.20083 29.4508C2.46859 30.1831 1.28141 30.1831 0.549176 29.4508C-0.183058 28.7186 -0.183059 27.5314 0.549174 26.7992L12.3483 15L0.549175 3.20083C-0.183058 2.46859 -0.183058 1.28141 0.549175 0.549175Z" fill="#787A80"/>
</svg>
